HIERARCHY
ROOT root
{
	OFFSET 0.000000 0.000000 0.000000
	CHANNELS 6 Xposition Yposition Zposition Zrotation Yrotation Xrotation
	JOINT lhip
	{
		OFFSET 0.058581 -0.082280 -0.017664
		CHANNELS 3 Zrotation Yrotation Xrotation
		JOINT lknee
		{
			OFFSET 0.043451 -0.386469 0.008037
			CHANNELS 3 Zrotation Yrotation Xrotation
			JOINT lankle
			{
				OFFSET -0.014790 -0.426874 -0.037428
				CHANNELS 3 Zrotation Yrotation Xrotation
				JOINT ltoe
				{
					OFFSET 0.041054 -0.060286 0.122042
					CHANNELS 3 Zrotation Yrotation Xrotation
					End Site
					{
						OFFSET 0.000000 0.000000 0.000000
					}
				}
			}
		}
	}
	JOINT rhip
	{
		OFFSET -0.060310 -0.090513 -0.013543
		CHANNELS 3 Zrotation Yrotation Xrotation
		JOINT rknee
		{
			OFFSET -0.043257 -0.383688 -0.004843
			CHANNELS 3 Zrotation Yrotation Xrotation
			JOINT rankle
			{
				OFFSET 0.019056 -0.420046 -0.034562
				CHANNELS 3 Zrotation Yrotation Xrotation
				JOINT rtoe
				{
					OFFSET -0.034840 -0.062106 0.130323
					CHANNELS 3 Zrotation Yrotation Xrotation
					End Site
					{
						OFFSET 0.000000 0.000000 0.000000
					}
				}
			}
		}
	}
	JOINT lowerback
	{
		OFFSET 0.004439 0.124404 -0.038385
		CHANNELS 3 Zrotation Yrotation Xrotation
		JOINT upperback
		{
			OFFSET 0.004488 0.137956 0.026820
			CHANNELS 3 Zrotation Yrotation Xrotation
			JOINT chest
			{
				OFFSET -0.002265 0.056032 0.002855
				CHANNELS 3 Zrotation Yrotation Xrotation
				JOINT lowerneck
				{
					OFFSET -0.013390 0.211636 -0.033468
					CHANNELS 3 Zrotation Yrotation Xrotation
					JOINT upperneck
					{
						OFFSET 0.010113 0.088937 0.050410
						CHANNELS 3 Zrotation Yrotation Xrotation
						End Site
						{
							OFFSET 0.000000 0.000000 0.000000
						}
					}
				}
				JOINT lclavicle
				{
					OFFSET 0.071702 0.114000 -0.018898
					CHANNELS 3 Zrotation Yrotation Xrotation
					JOINT lshoulder
					{
						OFFSET 0.122921 0.045205 -0.019046
						CHANNELS 3 Zrotation Yrotation Xrotation
						JOINT lelbow
						{
							OFFSET 0.255332 -0.015649 -0.022946
							CHANNELS 3 Zrotation Yrotation Xrotation
							JOINT lwrist
							{
								OFFSET 0.265709 0.012698 -0.007375
								CHANNELS 3 Zrotation Yrotation Xrotation
								End Site
								{
									OFFSET 0.000000 0.000000 0.000000
								}
							}
						}
					}
				}
				JOINT rclavicle
				{
					OFFSET -0.082954 0.112472 -0.023707
					CHANNELS 3 Zrotation Yrotation Xrotation
					JOINT rshoulder
					{
						OFFSET -0.113228 0.046853 -0.008472
						CHANNELS 3 Zrotation Yrotation Xrotation
						JOINT relbow
						{
							OFFSET -0.260127 -0.014369 -0.031269
							CHANNELS 3 Zrotation Yrotation Xrotation
							JOINT rwrist
							{
								OFFSET -0.269108 0.006794 -0.006027
								CHANNELS 3 Zrotation Yrotation Xrotation
								End Site
								{
									OFFSET 0.000000 0.000000 0.000000
								}
							}
						}
					}
				}
			}
		}
	}
}
MOTION
Frames: 11
Frame Time: 0.033333
0.437558 0.290436 1.006231 -42.379087 0.225133 85.170960 1.110331 -4.574667 -1.076624 -4.400258 -16.630987 12.474598 0.832440 8.146253 -15.659166 0.000000 -0.000000 0.000000 3.655284 10.209143 -2.669626 7.214077 22.592198 24.251725 4.680322 10.091506 -16.893224 0.000000 -0.000000 0.000000 -1.117092 -0.631917 12.285692 4.802342 -2.072494 0.038208 0.125427 -2.312002 4.272654 8.280538 -1.658679 1.368945 -3.472466 -12.267775 16.961570 -29.022910 9.586819 -0.514830 -54.880014 -5.113779 11.502941 12.171952 -34.376907 0.576646 -1.322773 -3.480717 -6.073339 30.190193 -3.633182 -3.152667 51.792119 5.715453 14.349181 -17.227725 28.935437 -10.852634 4.786626 1.994078 -9.912190 
0.439335 0.282108 1.006248 -45.307124 0.263520 85.529280 0.908776 -3.121023 -0.295969 -4.108758 -15.333116 11.000916 1.464058 8.638414 -14.611090 0.000000 -0.000000 0.000000 3.233898 10.091241 -3.917485 7.569506 21.343132 25.726613 5.285522 10.209759 -17.161142 0.000000 -0.000000 0.000000 -1.573557 -1.398714 12.543532 4.929494 -2.360629 -0.530988 0.212313 -2.407029 4.035655 8.407924 -0.969261 1.618741 -3.631182 -11.568096 17.644954 -28.961794 9.783831 -0.431907 -54.904565 -5.326094 11.470761 11.590742 -34.499404 0.985247 -1.070625 -3.411781 -5.841673 30.854578 -4.192314 -3.468716 51.559285 5.610069 14.251532 -17.238841 28.196863 -11.186041 4.572624 2.078167 -9.504775 
0.442455 0.276079 1.007124 -48.734410 0.435102 86.096204 1.075775 -2.211428 0.166119 -4.153191 -13.926226 9.604418 1.930183 9.326711 -13.984131 0.000000 -0.000000 0.000000 2.821198 9.690193 -6.049680 8.174008 18.915249 27.728449 5.923962 9.800614 -16.737020 0.000000 -0.000000 0.000000 -1.887858 -1.647686 12.565815 5.054148 -2.313965 -0.805958 0.391519 -2.765268 3.884599 8.204330 -0.493122 1.695976 -3.721521 -11.131789 17.676793 -28.796575 9.679497 -0.221893 -55.175638 -5.802928 11.297930 11.679376 -34.453552 0.940253 -1.508879 -3.373084 -5.794753 31.129758 -4.542966 -3.365703 51.761519 5.895661 13.815208 -17.689001 27.524763 -12.060756 4.658890 1.781114 -9.616859 
0.443998 0.270233 1.007891 -52.235027 0.648145 86.487323 0.921990 -1.118298 0.810709 -3.770997 -12.674283 8.375085 2.533177 10.207873 -13.728978 0.000000 -0.000000 0.000000 2.422064 8.872976 -8.143708 8.678463 15.960733 29.792237 6.868416 9.035065 -16.730343 0.000000 -0.000000 0.000000 -1.988172 -2.010366 12.627000 4.920253 -2.175024 -1.106450 0.331489 -2.969735 3.946102 8.251060 0.403283 1.726235 -3.786158 -10.228713 17.742494 -28.401526 9.524886 0.000653 -55.199375 -6.144159 11.173508 11.529394 -34.655363 0.995714 -1.470579 -3.162894 -5.335509 31.549017 -4.717550 -3.194657 52.001543 6.193961 13.478006 -17.884630 26.887855 -12.938895 4.704011 1.912499 -9.309926 
0.445323 0.264690 1.008292 -55.982940 1.027703 86.520537 0.688582 0.033742 1.799398 -3.019310 -10.997520 7.108026 3.170702 11.053340 -13.110505 0.000000 -0.000000 0.000000 2.274291 7.922986 -9.780386 8.500840 12.400120 31.347333 8.433135 7.499211 -17.376149 0.000000 -0.000000 0.000000 -1.880367 -2.295727 13.181051 4.763671 -1.835949 -1.251542 0.393774 -2.857902 3.933451 8.003970 0.982903 1.508595 -3.788818 -9.351544 17.425502 -28.201336 9.020109 0.036318 -54.994395 -6.351340 10.897357 11.394908 -34.935345 0.880870 -1.476294 -3.225234 -5.327615 31.327990 -4.471247 -2.781278 52.491680 6.051637 13.131131 -18.088957 26.865801 -13.958820 4.474105 1.673966 -9.628792 
0.445808 0.259787 1.008384 -59.660592 1.341235 86.296728 0.627924 1.038139 2.748444 -2.777816 -9.508209 6.542223 3.445544 11.978336 -13.278400 0.000000 -0.000000 0.000000 2.049507 6.475480 -11.078024 7.591351 7.542872 32.484508 9.096551 4.703053 -17.344004 0.000000 -0.000000 0.000000 -1.898395 -2.680536 13.816700 4.445963 -1.560568 -1.247813 0.527914 -2.701143 4.086023 7.681581 1.630138 1.147325 -3.669153 -8.121161 17.307243 -28.123224 8.720281 0.007979 -54.557872 -6.701358 10.361154 11.202406 -35.415640 0.788680 -1.312388 -3.178567 -5.163850 31.270620 -3.882876 -2.501781 52.628842 5.992294 13.127691 -17.731355 26.944941 -14.266314 4.378518 2.050287 -9.225990 
0.445724 0.255700 1.007829 -63.000383 1.728778 86.326903 0.610581 1.745318 3.088808 -2.483167 -7.953252 6.561353 3.683927 12.869225 -13.741442 0.000000 -0.000000 0.000000 2.104524 4.843115 -12.120282 5.399531 2.061561 32.557149 7.228270 -0.212803 -19.093083 0.000000 -0.000000 0.000000 -1.739726 -2.974308 14.394488 4.080871 -1.333796 -1.759777 0.667991 -2.749709 4.205772 7.393812 2.040806 1.059214 -3.562845 -6.887524 17.490461 -27.830625 8.582079 0.447063 -54.307288 -7.150621 9.621196 11.186959 -35.770732 0.986166 -1.560441 -2.761375 -5.565002 31.218973 -3.509414 -2.302731 52.772341 5.899288 13.165479 -17.267851 26.643408 -13.743627 4.554915 1.921013 -8.704312 
0.444909 0.252033 1.007023 -66.279714 2.106271 86.402404 0.532947 2.556831 3.278393 -2.113571 -6.423125 6.747441 4.065910 13.681975 -14.171797 0.000000 -0.000000 0.000000 2.227666 3.125403 -12.952569 2.957063 -2.432619 32.180960 5.660206 -4.763582 -19.653764 0.000000 -0.000000 0.000000 -1.539774 -3.052288 14.896770 3.791231 -1.071801 -2.347514 0.903500 -2.953114 4.407364 6.862386 2.418785 0.943574 -3.599855 -5.451937 17.651407 -27.677900 8.444892 0.786252 -54.160410 -7.649825 8.817812 11.150183 -35.801772 1.185394 -1.633993 -2.686073 -6.102374 31.086073 -3.365978 -2.074765 52.949032 5.888673 13.272437 -17.098224 26.850678 -13.456318 4.311064 2.088162 -8.211042 
0.443249 0.248975 1.006316 -69.360950 2.512160 86.435357 0.497979 3.079776 3.498079 -1.684696 -4.932497 6.925115 4.360045 14.548057 -14.680964 0.000000 -0.000000 0.000000 2.277396 2.427129 -13.391046 2.449967 -4.046819 31.314000 5.474018 -6.323225 -19.108866 0.000000 -0.000000 0.000000 -1.379093 -3.027714 14.910552 3.707824 -0.969595 -2.178441 1.070883 -2.960539 4.603614 6.509568 3.033189 0.771608 -3.709241 -4.379830 17.614200 -27.533371 8.014938 0.928911 -54.191590 -8.093354 8.369411 11.490083 -35.532832 0.605144 -1.740188 -2.548254 -6.152210 31.018442 -3.203179 -1.757672 53.089933 6.103026 13.157868 -17.092370 26.769356 -13.875777 4.385848 2.035214 -8.338978 
0.441621 0.246402 1.005938 -72.096943 2.845372 86.743532 0.473498 3.481916 3.356978 -1.474943 -3.770299 7.039633 4.374350 15.613301 -15.214422 0.000000 -0.000000 0.000000 2.216247 2.645073 -14.097121 3.109624 -3.388144 29.652164 5.701082 -5.802836 -19.013676 0.000000 -0.000000 0.000000 -1.313085 -3.166514 15.129638 3.709025 -0.870930 -2.364735 1.206030 -2.934233 4.539076 6.247267 3.890795 0.533064 -3.896558 -3.678630 17.846854 -27.427307 8.036031 0.579260 -54.351532 -8.150766 8.451939 11.634022 -35.255882 0.452991 -1.356534 -2.684568 -5.893160 31.278436 -3.358172 -1.635906 52.890463 6.188396 13.294209 -17.159236 26.905045 -14.197062 3.857868 1.938206 -8.223290 
0.438050 0.244153 1.005842 -74.028293 3.261232 87.034419 0.617132 3.789272 3.596397 -1.245374 -3.065869 6.653850 4.358899 16.200242 -15.395421 0.000000 -0.000000 0.000000 2.357242 3.315685 -14.298951 3.532238 -2.139395 27.516547 5.986996 -4.503553 -18.801271 0.000000 -0.000000 0.000000 -1.103337 -3.426578 15.103118 3.825896 -1.040655 -2.330061 1.271362 -3.061509 4.559402 5.975134 4.730352 0.637875 -4.051589 -2.994840 17.633168 -27.350260 7.955709 0.546541 -54.489648 -8.359251 8.524550 11.754731 -35.081016 0.185530 -1.187029 -2.730954 -5.638506 31.389559 -3.529362 -1.656813 52.870185 6.173933 13.423958 -17.216656 26.888489 -14.088212 3.661175 2.020331 -8.078220 
